REM DIRINDEX 1\2,1\3
REM DIRNAME folder01,folder02,folder03
TITLE ""
FILE "CD2Track03.mp3" MP3
  TRACK 01 AUDIO
    TITLE "0:"
    INDEX 01 00:00:00
  TRACK 02 AUDIO
    TITLE "2:cjc102_2333"
    INDEX 01 00:00:25
  TRACK 03 AUDIO
    TITLE "0:"
    INDEX 01 00:01:26
  TRACK 04 AUDIO
    TITLE "3:cjc102_2334"
    INDEX 01 00:01:28
  TRACK 05 AUDIO
    TITLE "0:"
    INDEX 01 00:02:59
  TRACK 06 AUDIO
    TITLE "3:cjc102_2335"
    INDEX 01 00:03:02
  TRACK 07 AUDIO
    TITLE "0:"
    INDEX 01 00:05:65
  TRACK 08 AUDIO
    TITLE "2:cjc102_2336"
    INDEX 01 00:05:67
  TRACK 09 AUDIO
    TITLE "0:"
    INDEX 01 00:06:65
  TRACK 10 AUDIO
    TITLE "3:cjc102_2337"
    INDEX 01 00:07:70
  TRACK 11 AUDIO
    TITLE "0:"
    INDEX 01 00:08:68
  TRACK 12 AUDIO
    TITLE "2:cjc102_2338"
    INDEX 01 00:09:20
  TRACK 13 AUDIO
    TITLE "0:"
    INDEX 01 00:10:35
  TRACK 14 AUDIO
    TITLE "3:cjc102_2339"
    INDEX 01 00:11:60
  TRACK 15 AUDIO
    TITLE "0:"
    INDEX 01 00:12:32
  TRACK 16 AUDIO
    TITLE "2:cjc102_2340"
    INDEX 01 00:12:36
  TRACK 17 AUDIO
    TITLE "0:"
    INDEX 01 00:13:51
  TRACK 18 AUDIO
    TITLE "3:cjc102_2341"
    INDEX 01 00:15:27
  TRACK 19 AUDIO
    TITLE "0:"
    INDEX 01 00:16:26
  TRACK 20 AUDIO
    TITLE "2:cjc102_2342"
    INDEX 01 00:16:59
  TRACK 21 AUDIO
    TITLE "0:"
    INDEX 01 00:18:05
  TRACK 22 AUDIO
    TITLE "3:cjc102_2343"
    INDEX 01 00:18:58
  TRACK 23 AUDIO
    TITLE "0:"
    INDEX 01 00:19:54
  TRACK 24 AUDIO
    TITLE "2:cjc102_2344"
    INDEX 01 00:20:16
  TRACK 25 AUDIO
    TITLE "0:"
    INDEX 01 00:21:39
  TRACK 26 AUDIO
    TITLE "3:cjc102_2345"
    INDEX 01 00:22:54
  TRACK 27 AUDIO
    TITLE "0:"
    INDEX 01 00:23:32
  TRACK 28 AUDIO
    TITLE "2:cjc102_2346"
    INDEX 01 00:23:71
  TRACK 29 AUDIO
    TITLE "0:"
    INDEX 01 00:25:03
  TRACK 30 AUDIO
    TITLE "3:cjc102_2347"
    INDEX 01 00:26:15
  TRACK 31 AUDIO
    TITLE "0:"
    INDEX 01 00:27:14
  TRACK 32 AUDIO
    TITLE "2:cjc102_2348"
    INDEX 01 00:27:22
  TRACK 33 AUDIO
    TITLE "0:"
    INDEX 01 00:28:23
  TRACK 34 AUDIO
    TITLE "3:cjc102_2349"
    INDEX 01 00:29:70
  TRACK 35 AUDIO
    TITLE "0:"
    INDEX 01 00:30:59
  TRACK 36 AUDIO
    TITLE "2:cjc102_2350"
    INDEX 01 00:30:63
  TRACK 37 AUDIO
    TITLE "0:"
    INDEX 01 00:31:71
  TRACK 38 AUDIO
    TITLE "2:cjc102_2351"
    INDEX 01 00:33:48
  TRACK 39 AUDIO
    TITLE "0:"
    INDEX 01 00:34:57
  TRACK 40 AUDIO
    TITLE "3:cjc102_2352"
    INDEX 01 00:35:63
  TRACK 41 AUDIO
    TITLE "0:"
    INDEX 01 00:36:60
  TRACK 42 AUDIO
    TITLE "2:cjc102_2353"
    INDEX 01 00:37:24
  TRACK 43 AUDIO
    TITLE "0:"
    INDEX 01 00:38:30
  TRACK 44 AUDIO
    TITLE "2:cjc102_2354"
    INDEX 01 00:40:21
  TRACK 45 AUDIO
    TITLE "0:"
    INDEX 01 00:41:26
  TRACK 46 AUDIO
    TITLE "3:cjc102_2355"
    INDEX 01 00:43:21
  TRACK 47 AUDIO
    TITLE "0:"
    INDEX 01 00:44:12
  TRACK 48 AUDIO
    TITLE "2:cjc102_2356"
    INDEX 01 00:44:14
  TRACK 49 AUDIO
    TITLE "0:"
    INDEX 01 00:48:04
  TRACK 50 AUDIO
    TITLE "3:cjc102_2357"
    INDEX 01 00:48:49
  TRACK 51 AUDIO
    TITLE "0:"
    INDEX 01 00:49:45
  TRACK 52 AUDIO
    TITLE "2:cjc102_2358"
    INDEX 01 00:50:23
  TRACK 53 AUDIO
    TITLE "0:"
    INDEX 01 00:55:59
  TRACK 54 AUDIO
    TITLE "3:cjc102_2359"
    INDEX 01 00:57:27
  TRACK 55 AUDIO
    TITLE "0:"
    INDEX 01 00:58:44
  TRACK 56 AUDIO
    TITLE "2:cjc102_2360"
    INDEX 01 00:58:60
  TRACK 57 AUDIO
    TITLE "0:"
    INDEX 01 00:59:65
  TRACK 58 AUDIO
    TITLE "3:cjc102_2361"
    INDEX 01 01:00:55
  TRACK 59 AUDIO
    TITLE "0:"
    INDEX 01 01:01:68
  TRACK 60 AUDIO
    TITLE "2:cjc102_2362"
    INDEX 01 01:01:74
  TRACK 61 AUDIO
    TITLE "0:"
    INDEX 01 01:03:20
  TRACK 62 AUDIO
    TITLE "3:cjc102_2363"
    INDEX 01 01:04:21
  TRACK 63 AUDIO
    TITLE "0:"
    INDEX 01 01:05:40
  TRACK 64 AUDIO
    TITLE "2:cjc102_2364"
    INDEX 01 01:05:42
  TRACK 65 AUDIO
    TITLE "0:"
    INDEX 01 01:06:57
  TRACK 66 AUDIO
    TITLE "3:cjc102_2365"
    INDEX 01 01:07:43
  TRACK 67 AUDIO
    TITLE "0:"
    INDEX 01 01:08:62
  TRACK 68 AUDIO
    TITLE "2:cjc102_2366"
    INDEX 01 01:08:70
  TRACK 69 AUDIO
    TITLE "0:"
    INDEX 01 01:10:02
